<svg id="Layer_1" data-name="Layer 1" xmlns="http://www.w3.org/2000/svg" viewBox="0 0 500 500"><defs><style>.cls-1{fill:#61dbfb;}.cls-2{opacity:0.3;}</style></defs><title>logo</title><path class="cls-1" d="M250,225.46,146.63,122.18l88.13-88.12a21.43,21.43,0,0,1,7.1-4.71,12.2,12.2,0,0,1,2.49-.77,13.62,13.62,0,0,1,2.57-.52c.68-.08,1.37-.08,2.05-.17a4.48,4.48,0,0,1,1-.08V28a21.31,21.31,0,0,1,15.24,6.08l88.13,88.12Z"/><path class="cls-1" d="M465.9,265.2,265.24,465.85a21.49,21.49,0,0,1-30.48,0L34.1,265.2a21.61,21.61,0,0,1,0-30.49l94.38-94.37L250,261.86,371.52,140.34l94.38,94.37A21.61,21.61,0,0,1,465.9,265.2Z"/><path class="cls-2" d="M250,27.81V225.46L146.63,122.18l88.13-88.12a21.43,21.43,0,0,1,7.1-4.71,12.2,12.2,0,0,1,2.49-.77,13.62,13.62,0,0,1,2.57-.52c.68-.08,1.37-.08,2.05-.17A4.48,4.48,0,0,1,250,27.81Z"/><path class="cls-2" d="M128.48,140.34,250,261.86V472.19a21.58,21.58,0,0,1-15.24-6.34L34.1,265.2a21.61,21.61,0,0,1,0-30.49Z"/></svg>